<svg width="451" height="346" viewBox="0 0 451 346" fill="none" xmlns="http://www.w3.org/2000/svg">
<path d="M24.8 71C24.6667 71 24.8667 70.2667 25.4 68.8C26.0667 67.2 27.5333 65.6667 29.8 64.2C32.0667 62.7333 35.8 61.9333 41 61.8C45.6667 61.6667 49.2 62.2667 51.6 63.6C54 64.8 55.6 66 56.4 67.2C57.3333 68.4 57.8 69 57.8 69C57.8 69 58.5333 70.7333 60 74.2C61.4667 77.6667 63.4667 82.2667 66 88C68.5333 93.6 71.3333 99.8667 74.4 106.8C77.4667 113.733 80.5333 120.8 83.6 128C86.8 135.067 89.7333 141.733 92.4 148C95.2 154.133 97.5333 159.333 99.4 163.6C101.267 167.733 102.467 170.333 103 171.4C104.2 173.933 104.867 175.733 105 176.8C105.133 177.867 105.067 178.6 104.8 179C104.667 179.267 104.6 179.467 104.6 179.6C103.667 181.467 101.8 183.067 99 184.4C96.3333 185.867 93.0667 186.667 89.2 186.8C83.8667 186.933 80 186.333 77.6 185C75.2 183.8 73.6 182.533 72.8 181.2C72.1333 180 71.8667 179.467 72 179.6C72 179.6 71.2667 178.067 69.8 175C68.4667 171.933 66.8667 168.267 65 164C63.1333 159.6 61.4 155.6 59.8 152C59.8 152 58.8667 152 57 152C55.2667 152 53.2 152 50.8 152C48.4 152 46.2667 152 44.4 152C42.6667 152 41.8 152 41.8 152C41.2667 153.867 40.7333 156.2 40.2 159C39.6667 161.667 39.2 164.067 38.8 166.2C38.4 168.333 38.2 169.4 38.2 169.4C38.2 169.4 37.8667 170.2 37.2 171.8C36.6667 173.4 35.1333 175 32.6 176.6C30.0667 178.2 25.8667 179 20 179C15.6 179 12.2667 178.533 10 177.6C7.86667 176.533 6.4 175.333 5.6 174C4.93333 172.667 4.6 171.533 4.6 170.6C4.6 169.533 4.6 169 4.6 169C4.86667 167.667 5.4 164.933 6.2 160.8C7.13333 156.533 8.2 151.467 9.4 145.6C10.7333 139.6 12.0667 133.267 13.4 126.6C14.8667 119.933 16.2667 113.333 17.6 106.8C18.9333 100.267 20.1333 94.3333 21.2 89C22.2667 83.5333 23.1333 79.2 23.8 76C24.4667 72.6667 24.8 71 24.8 71ZM45.8 102.6C45.6667 103.133 45.5333 104.2 45.4 105.8L44.6 111.4C44.3333 114.467 44 117.733 43.6 121.2C43.2 124.667 42.8 127.933 42.4 131C42.1333 132.6 41.9333 133.6 41.8 134H44.4C46 134 47.7333 133.933 49.6 133.8C51.4667 133.667 53.1333 133.6 54.6 133.6C54.0667 132.533 53.6 131.2 53.2 129.6C52.9333 127.867 52.6 126.267 52.2 124.8C51.4 121.733 50.4667 118.533 49.4 115.2C48.4667 111.867 47.6 108.733 46.8 105.8C46.4 104.2 46.0667 103.133 45.8 102.6ZM155.622 147C145.622 146.733 137.822 145.733 132.222 144C126.622 142.267 122.622 140.2 120.222 137.8C117.955 135.4 116.555 133.067 116.022 130.8C115.489 128.4 115.222 126.533 115.222 125.2C115.222 123.867 115.422 121.8 115.822 119C116.222 116.2 117.489 113.267 119.622 110.2C121.755 107.133 125.422 104.467 130.622 102.2C135.955 99.9333 143.489 98.6667 153.222 98.4C163.889 98.1333 172.089 98.7333 177.822 100.2C183.555 101.667 187.622 103.4 190.022 105.4C192.555 107.4 194.089 109.2 194.622 110.8C195.155 112.267 195.422 113 195.422 113C195.422 114.733 195.222 116.533 194.822 118.4C194.422 120.133 193.222 121.6 191.222 122.8C189.355 123.867 186.089 124.333 181.422 124.2C177.689 124.067 174.889 123.733 173.022 123.2C171.155 122.667 169.755 122.067 168.822 121.4C168.022 120.6 167.155 119.8 166.222 119C165.422 118.2 164.155 117.533 162.422 117C160.822 116.467 158.222 116.133 154.622 116C150.222 115.867 146.889 116.2 144.622 117C142.489 117.667 141.022 118.533 140.222 119.6C139.555 120.667 139.155 121.6 139.022 122.4C139.022 123.067 139.022 123.4 139.022 123.4C139.022 123.4 139.155 123.933 139.422 125C139.822 126.067 141.155 127.133 143.422 128.2C145.822 129.267 150.089 129.867 156.222 130C167.822 130.4 176.689 131.533 182.822 133.4C189.089 135.133 193.489 137.2 196.022 139.6C198.689 142 200.222 144.4 200.622 146.8C201.155 149.067 201.422 150.867 201.422 152.2C201.422 153.533 200.955 155.6 200.022 158.4C199.222 161.2 197.422 164.133 194.622 167.2C191.822 170.267 187.489 172.933 181.622 175.2C175.889 177.467 168.155 178.733 158.422 179C147.889 179.267 139.689 178.667 133.822 177.2C128.089 175.733 123.955 174 121.422 172C119.022 170 117.555 168.267 117.022 166.8C116.489 165.2 116.222 164.4 116.222 164.4C116.222 162.533 116.422 160.733 116.822 159C117.355 157.267 118.555 155.867 120.422 154.8C122.422 153.6 125.689 153.067 130.222 153.2C134.089 153.333 136.889 153.667 138.622 154.2C140.489 154.733 141.889 155.4 142.822 156.2C143.755 156.867 144.622 157.6 145.422 158.4C146.222 159.2 147.489 159.867 149.222 160.4C150.955 160.933 153.555 161.267 157.022 161.4C161.422 161.533 164.689 161.267 166.822 160.6C169.089 159.8 170.622 158.867 171.422 157.8C172.222 156.733 172.622 155.867 172.622 155.2C172.622 154.4 172.622 154 172.622 154C172.622 154 172.489 153.467 172.222 152.4C171.955 151.2 170.622 150.067 168.222 149C165.955 147.8 161.755 147.133 155.622 147ZM210.464 69.8C210.331 66.4667 211.331 63.8 213.464 61.8C215.597 59.6667 220.331 58.4 227.664 58C232.597 57.7333 236.197 58.3333 238.464 59.8C240.731 61.2667 242.131 62.8 242.664 64.4C243.331 65.8667 243.664 66.6 243.664 66.6L244.864 84.4C244.864 84.4 245.931 84.4 248.064 84.4C250.331 84.4 252.864 84.6667 255.664 85.2C258.597 85.6 261.131 86.4667 263.264 87.8C265.531 89.1333 266.664 91.2 266.664 94C266.664 96.8 265.597 98.8667 263.464 100.2C261.331 101.533 258.864 102.467 256.064 103C253.264 103.4 250.731 103.6 248.464 103.6C246.331 103.6 245.264 103.6 245.264 103.6C245.264 103.6 245.264 105.133 245.264 108.2C245.397 111.133 245.464 115 245.464 119.8C245.464 124.467 245.531 129.467 245.664 134.8C245.797 140.133 245.864 145.267 245.864 150.2C245.864 155 245.864 159.067 245.864 162.4C245.997 165.6 246.064 167.467 246.064 168C246.064 168.933 245.731 170.267 245.064 172C244.531 173.733 242.997 175.333 240.464 176.8C238.064 178.267 234.064 179 228.464 179C224.331 179 221.131 178.533 218.864 177.6C216.597 176.533 214.931 175.4 213.864 174.2C212.931 172.867 212.397 171.733 212.264 170.8C212.131 169.733 212.064 169.2 212.064 169.2L210.464 69.8ZM283.898 165.4C283.898 163.933 283.698 161.4 283.298 157.8C282.898 154.2 282.365 150.133 281.698 145.6C281.165 140.933 280.565 136.333 279.898 131.8C279.232 127.133 278.498 123 277.698 119.4C277.032 115.667 276.432 113 275.898 111.4C274.565 107.4 275.298 104.6 278.098 103C281.032 101.267 285.098 100.133 290.298 99.6C295.498 99.0667 299.232 99.4667 301.498 100.8C303.898 102 305.098 102.6 305.098 102.6C307.098 100.6 310.365 99.2 314.898 98.4C319.565 97.6 324.432 97.2667 329.498 97.4C336.032 97.5333 340.765 98.5333 343.698 100.4C346.632 102.267 348.098 104.267 348.098 106.4C348.098 108 347.898 109.2 347.498 110C347.098 110.8 345.498 111.6 342.698 112.4C340.032 113.067 335.165 114.267 328.098 116C323.965 116.933 320.898 119.2 318.898 122.8C316.898 126.267 315.632 130.333 315.098 135C314.698 139.533 314.698 144.067 315.098 148.6C315.498 153 315.965 156.733 316.498 159.8C317.032 162.733 317.298 164.333 317.298 164.6C317.298 164.867 317.365 165.8 317.498 167.4C317.765 168.867 317.565 170.533 316.898 172.4C316.365 174.133 314.965 175.667 312.698 177C310.432 178.333 306.832 179 301.898 179C296.965 179 293.232 178.333 290.698 177C288.165 175.533 286.432 173.933 285.498 172.2C284.565 170.467 284.032 168.933 283.898 167.6C283.898 166.133 283.898 165.4 283.898 165.4ZM399.339 97.8C404.272 97.4 408.072 97.9333 410.739 99.4C413.406 100.867 415.006 101.733 415.539 102C416.872 102.667 418.072 103.4 419.139 104.2C420.339 105 420.939 105.4 420.939 105.4C420.939 105.4 421.939 105.733 423.939 106.4C425.939 107.067 428.272 108.667 430.939 111.2C433.606 113.6 436.072 117.4 438.339 122.6C440.606 127.8 441.939 134.867 442.339 143.8C442.606 149.8 441.672 154.867 439.539 159C437.406 163 434.539 166.333 430.939 169C427.472 171.533 423.672 173.533 419.539 175C415.539 176.333 411.672 177.267 407.939 177.8C404.339 178.333 401.339 178.667 398.939 178.8C396.672 178.933 395.539 179 395.539 179C395.539 179 394.206 179 391.539 179C389.006 179 385.806 178.6 381.939 177.8C378.072 176.867 374.206 175.133 370.339 172.6C366.606 169.933 363.472 166.067 360.939 161C358.539 155.933 357.472 149.2 357.739 140.8C358.006 132.4 359.539 125.533 362.339 120.2C365.272 114.733 368.739 110.467 372.739 107.4C376.872 104.333 380.939 102.133 384.939 100.8C389.072 99.4667 392.472 98.6667 395.139 98.4C397.939 98 399.339 97.8 399.339 97.8ZM400.139 117.4C400.139 117.4 399.272 118.467 397.539 120.6C395.939 122.733 394.272 125.733 392.539 129.6C390.939 133.467 390.139 138 390.139 143.2C390.139 148.267 390.739 152.267 391.939 155.2C393.139 158.133 394.406 160.267 395.739 161.6C397.206 162.8 398.339 163.4 399.139 163.4C399.939 163.4 401.206 163.067 402.939 162.4C404.806 161.6 406.472 159.867 407.939 157.2C409.406 154.533 410.072 150.333 409.939 144.6C409.806 139.8 409.272 135.933 408.339 133C407.539 130.067 406.406 127.467 404.939 125.2C403.606 122.8 402.006 120.2 400.139 117.4Z" fill="black"/>
<rect x="91" y="212" width="264" height="122" rx="60" fill="#FFFCA6"/>
<path d="M157.2 258.9C157.2 258.9 156.767 258.9 155.9 258.9C155.033 258.833 154 258.633 152.8 258.3C151.667 257.9 150.633 257.2 149.7 256.2C148.767 255.2 148.267 253.7 148.2 251.7C148.133 249.7 148.433 248.233 149.1 247.3C149.767 246.3 150.6 245.633 151.6 245.3C152.6 244.9 153.567 244.7 154.5 244.7C155.433 244.633 156.1 244.567 156.5 244.5C156.9 244.433 157.567 244.5 158.5 244.7C159.433 244.833 160.4 245.2 161.4 245.8C162.4 246.333 163.233 247.167 163.9 248.3C164.567 249.367 164.833 250.8 164.7 252.6C164.567 254.333 164.1 255.667 163.3 256.6C162.567 257.467 161.7 258.067 160.7 258.4C159.767 258.667 158.933 258.833 158.2 258.9C157.533 258.9 157.2 258.9 157.2 258.9ZM153.7 294.8L151.3 272C151.3 272 151.133 271.667 150.8 271C150.533 270.267 150.333 269.767 150.2 269.5C150.133 269.3 150 268.9 149.8 268.3C149.667 267.633 149.833 266.933 150.3 266.2C150.833 265.467 151.967 264.933 153.7 264.6C155.5 264.267 157.367 264.167 159.3 264.3C161.233 264.433 162.933 265.033 164.4 266.1C165.933 267.1 166.867 268.867 167.2 271.4C167.467 273.267 167.733 275.5 168 278.1C168.267 280.633 168.5 283.133 168.7 285.6C168.967 288 169.167 290.033 169.3 291.7C169.5 293.3 169.6 294.1 169.6 294.1C169.6 294.1 169.633 294.467 169.7 295.2C169.767 295.867 169.667 296.667 169.4 297.6C169.133 298.467 168.467 299.267 167.4 300C166.4 300.667 164.767 301 162.5 301C160.233 301 158.5 300.7 157.3 300.1C156.1 299.433 155.233 298.7 154.7 297.9C154.233 297.1 153.933 296.4 153.8 295.8C153.733 295.133 153.7 294.8 153.7 294.8ZM190.858 242.6C192.258 242.6 193.591 242.667 194.858 242.8C196.191 242.867 197.291 243.267 198.158 244C199.024 244.733 199.524 246.067 199.658 248C199.724 248.933 199.858 250.5 200.058 252.7C200.324 254.833 200.591 257.333 200.858 260.2C201.191 263.067 201.524 266.033 201.858 269.1C202.258 272.1 202.624 275 202.958 277.8C203.291 280.533 203.591 282.9 203.858 284.9C204.124 286.9 204.324 288.233 204.458 288.9C204.658 289.9 204.858 291.1 205.058 292.5C205.258 293.833 205.258 295.167 205.058 296.5C204.858 297.767 204.224 298.833 203.158 299.7C202.158 300.567 200.491 301 198.158 301C195.891 301 194.124 300.767 192.858 300.3C191.591 299.767 190.691 299.133 190.158 298.4C189.624 297.667 189.291 297 189.158 296.4C189.091 295.733 189.024 295.267 188.958 295C188.891 294.8 188.724 293.867 188.458 292.2C188.191 290.533 187.858 288.533 187.458 286.2C187.124 283.867 186.758 281.567 186.358 279.3C186.024 276.967 185.724 275.033 185.458 273.5C185.191 271.967 185.058 271.2 185.058 271.2C185.058 271.2 184.624 271.233 183.758 271.3C182.958 271.3 181.958 271.267 180.758 271.2C179.624 271.067 178.524 270.8 177.458 270.4C176.458 269.933 175.724 269.233 175.258 268.3C174.858 267.3 174.958 265.967 175.558 264.3C176.358 262.167 177.191 259.867 178.058 257.4C178.924 254.933 179.924 252.567 181.058 250.3C182.258 248.033 183.624 246.2 185.158 244.8C186.758 243.333 188.658 242.6 190.858 242.6ZM215.923 269C215.923 269 215.49 268.633 214.623 267.9C213.757 267.167 212.89 265.933 212.023 264.2C211.157 262.467 210.723 260.167 210.723 257.3C210.79 254.367 211.69 251.833 213.423 249.7C215.223 247.5 217.59 245.8 220.523 244.6C223.457 243.333 226.657 242.7 230.123 242.7C233.657 242.633 236.857 243.2 239.723 244.4C242.657 245.6 244.99 247.267 246.723 249.4C248.523 251.533 249.423 254.033 249.423 256.9C249.423 259.7 248.99 262 248.123 263.8C247.323 265.6 246.49 266.933 245.623 267.8C244.823 268.667 244.423 269.1 244.423 269.1C244.423 269.1 244.757 269.367 245.423 269.9C246.09 270.433 246.823 271.233 247.623 272.3C248.49 273.367 249.223 274.733 249.823 276.4C250.423 278 250.69 279.933 250.623 282.2C250.557 285.2 249.89 288.133 248.623 291C247.357 293.867 245.257 296.267 242.323 298.2C239.457 300.067 235.457 301 230.323 301C225.19 301 221.057 300.033 217.923 298.1C214.79 296.167 212.523 293.8 211.123 291C209.79 288.2 209.223 285.5 209.423 282.9C209.757 278.967 210.457 276 211.523 274C212.657 271.933 214.123 270.267 215.923 269ZM230.123 248.5C228.99 248.567 227.923 249.033 226.923 249.9C225.99 250.767 225.323 252.767 224.923 255.9C224.657 257.967 224.823 259.6 225.423 260.8C226.023 261.933 226.79 262.767 227.723 263.3C228.723 263.767 229.657 264 230.523 264C231.857 264 232.957 263.333 233.823 262C234.69 260.6 235.057 258.333 234.923 255.2C234.857 252.8 234.423 251.167 233.623 250.3C232.823 249.367 232.023 248.833 231.223 248.7C230.49 248.567 230.123 248.5 230.123 248.5ZM230.023 274.3C229.29 274.3 228.457 274.467 227.523 274.8C226.657 275.133 225.823 275.967 225.023 277.3C224.29 278.567 223.757 280.667 223.423 283.6C223.157 286.533 223.457 288.733 224.323 290.2C225.19 291.6 226.223 292.533 227.423 293C228.69 293.4 229.723 293.633 230.523 293.7C231.323 293.7 232.19 293.433 233.123 292.9C234.123 292.367 234.99 291.333 235.723 289.8C236.457 288.267 236.79 286 236.723 283C236.723 280.733 236.357 279 235.623 277.8C234.957 276.6 234.19 275.767 233.323 275.3C232.457 274.767 231.69 274.467 231.023 274.4C230.357 274.333 230.023 274.3 230.023 274.3ZM266.241 301C266.241 301 265.807 301 264.941 301C264.074 301 263.074 300.867 261.941 300.6C260.874 300.333 259.907 299.8 259.041 299C258.174 298.2 257.674 297.033 257.541 295.5C257.474 294.233 257.341 292.433 257.141 290.1C256.941 287.767 256.707 285.233 256.441 282.5C256.241 279.7 256.041 277.067 255.841 274.6C255.641 272.067 255.474 270 255.341 268.4C255.207 266.8 255.141 266 255.141 266C255.141 266 255.174 265.733 255.241 265.2C255.307 264.6 255.541 263.933 255.941 263.2C256.407 262.467 257.174 261.8 258.241 261.2C259.374 260.6 260.941 260.267 262.941 260.2C264.941 260.133 266.507 260.333 267.641 260.8C268.774 261.267 269.574 261.833 270.041 262.5C270.574 263.1 270.874 263.667 270.941 264.2C271.074 264.667 271.141 264.9 271.141 264.9C271.141 264.9 271.741 264.6 272.941 264C274.207 263.333 275.807 262.667 277.741 262C279.741 261.333 281.841 260.933 284.041 260.8C284.374 260.8 285.007 260.8 285.941 260.8C286.941 260.8 288.007 261.033 289.141 261.5C290.341 261.9 291.507 262.7 292.641 263.9C293.841 265.1 294.841 266.867 295.641 269.2C296.441 271.467 296.907 274.467 297.041 278.2C297.241 282.867 297.374 286.7 297.441 289.7C297.574 292.7 297.474 295.033 297.141 296.7C296.874 298.3 296.207 299.433 295.141 300.1C294.141 300.7 292.541 301 290.341 301C288.207 301 286.641 300.7 285.641 300.1C284.641 299.5 284.007 298.8 283.741 298C283.474 297.133 283.341 296.367 283.341 295.7C283.341 295.3 283.407 294.233 283.541 292.5C283.674 290.7 283.774 288.667 283.841 286.4C283.907 284.067 283.874 281.8 283.741 279.6C283.674 277.333 283.407 275.5 282.941 274.1C282.541 272.633 281.874 271.933 280.941 272C279.807 272.067 278.741 272.5 277.741 273.3C276.807 274.033 275.974 274.9 275.241 275.9C274.507 276.833 273.941 277.667 273.541 278.4C273.141 279.067 272.941 279.4 272.941 279.4L273.941 294.5C273.941 294.5 273.941 294.833 273.941 295.5C273.941 296.167 273.741 296.933 273.341 297.8C272.941 298.6 272.174 299.333 271.041 300C269.974 300.667 268.374 301 266.241 301Z" fill="#0080FF"/>
</svg>
