<svg width="724" height="213" viewBox="0 0 724 213" fill="none" xmlns="http://www.w3.org/2000/svg">
<path d="M24.8 71C24.6667 71 24.8667 70.2667 25.4 68.8C26.0667 67.2 27.5333 65.6667 29.8 64.2C32.0667 62.7333 35.8 61.9333 41 61.8C45.6667 61.6667 49.2 62.2667 51.6 63.6C54 64.8 55.6 66 56.4 67.2C57.3333 68.4 57.8 69 57.8 69C57.8 69 58.5333 70.7333 60 74.2C61.4667 77.6667 63.4667 82.2667 66 88C68.5333 93.6 71.3333 99.8667 74.4 106.8C77.4667 113.733 80.5333 120.8 83.6 128C86.8 135.067 89.7333 141.733 92.4 148C95.2 154.133 97.5333 159.333 99.4 163.6C101.267 167.733 102.467 170.333 103 171.4C104.2 173.933 104.867 175.733 105 176.8C105.133 177.867 105.067 178.6 104.8 179C104.667 179.267 104.6 179.467 104.6 179.6C103.667 181.467 101.8 183.067 99 184.4C96.3333 185.867 93.0667 186.667 89.2 186.8C83.8667 186.933 80 186.333 77.6 185C75.2 183.8 73.6 182.533 72.8 181.2C72.1333 180 71.8667 179.467 72 179.6C72 179.6 71.2667 178.067 69.8 175C68.4667 171.933 66.8667 168.267 65 164C63.1333 159.6 61.4 155.6 59.8 152C59.8 152 58.8667 152 57 152C55.2667 152 53.2 152 50.8 152C48.4 152 46.2667 152 44.4 152C42.6667 152 41.8 152 41.8 152C41.2667 153.867 40.7333 156.2 40.2 159C39.6667 161.667 39.2 164.067 38.8 166.2C38.4 168.333 38.2 169.4 38.2 169.4C38.2 169.4 37.8667 170.2 37.2 171.8C36.6667 173.4 35.1333 175 32.6 176.6C30.0667 178.2 25.8667 179 20 179C15.6 179 12.2667 178.533 10 177.6C7.86667 176.533 6.4 175.333 5.6 174C4.93333 172.667 4.6 171.533 4.6 170.6C4.6 169.533 4.6 169 4.6 169C4.86667 167.667 5.4 164.933 6.2 160.8C7.13333 156.533 8.2 151.467 9.4 145.6C10.7333 139.6 12.0667 133.267 13.4 126.6C14.8667 119.933 16.2667 113.333 17.6 106.8C18.9333 100.267 20.1333 94.3333 21.2 89C22.2667 83.5333 23.1333 79.2 23.8 76C24.4667 72.6667 24.8 71 24.8 71ZM45.8 102.6C45.6667 103.133 45.5333 104.2 45.4 105.8L44.6 111.4C44.3333 114.467 44 117.733 43.6 121.2C43.2 124.667 42.8 127.933 42.4 131C42.1333 132.6 41.9333 133.6 41.8 134H44.4C46 134 47.7333 133.933 49.6 133.8C51.4667 133.667 53.1333 133.6 54.6 133.6C54.0667 132.533 53.6 131.2 53.2 129.6C52.9333 127.867 52.6 126.267 52.2 124.8C51.4 121.733 50.4667 118.533 49.4 115.2C48.4667 111.867 47.6 108.733 46.8 105.8C46.4 104.2 46.0667 103.133 45.8 102.6ZM155.622 147C145.622 146.733 137.822 145.733 132.222 144C126.622 142.267 122.622 140.2 120.222 137.8C117.955 135.4 116.555 133.067 116.022 130.8C115.489 128.4 115.222 126.533 115.222 125.2C115.222 123.867 115.422 121.8 115.822 119C116.222 116.2 117.489 113.267 119.622 110.2C121.755 107.133 125.422 104.467 130.622 102.2C135.955 99.9333 143.489 98.6667 153.222 98.4C163.889 98.1333 172.089 98.7333 177.822 100.2C183.555 101.667 187.622 103.4 190.022 105.4C192.555 107.4 194.089 109.2 194.622 110.8C195.155 112.267 195.422 113 195.422 113C195.422 114.733 195.222 116.533 194.822 118.4C194.422 120.133 193.222 121.6 191.222 122.8C189.355 123.867 186.089 124.333 181.422 124.2C177.689 124.067 174.889 123.733 173.022 123.2C171.155 122.667 169.755 122.067 168.822 121.4C168.022 120.6 167.155 119.8 166.222 119C165.422 118.2 164.155 117.533 162.422 117C160.822 116.467 158.222 116.133 154.622 116C150.222 115.867 146.889 116.2 144.622 117C142.489 117.667 141.022 118.533 140.222 119.6C139.555 120.667 139.155 121.6 139.022 122.4C139.022 123.067 139.022 123.4 139.022 123.4C139.022 123.4 139.155 123.933 139.422 125C139.822 126.067 141.155 127.133 143.422 128.2C145.822 129.267 150.089 129.867 156.222 130C167.822 130.4 176.689 131.533 182.822 133.4C189.089 135.133 193.489 137.2 196.022 139.6C198.689 142 200.222 144.4 200.622 146.8C201.155 149.067 201.422 150.867 201.422 152.2C201.422 153.533 200.955 155.6 200.022 158.4C199.222 161.2 197.422 164.133 194.622 167.2C191.822 170.267 187.489 172.933 181.622 175.2C175.889 177.467 168.155 178.733 158.422 179C147.889 179.267 139.689 178.667 133.822 177.2C128.089 175.733 123.955 174 121.422 172C119.022 170 117.555 168.267 117.022 166.8C116.489 165.2 116.222 164.4 116.222 164.4C116.222 162.533 116.422 160.733 116.822 159C117.355 157.267 118.555 155.867 120.422 154.8C122.422 153.6 125.689 153.067 130.222 153.2C134.089 153.333 136.889 153.667 138.622 154.2C140.489 154.733 141.889 155.4 142.822 156.2C143.755 156.867 144.622 157.6 145.422 158.4C146.222 159.2 147.489 159.867 149.222 160.4C150.955 160.933 153.555 161.267 157.022 161.4C161.422 161.533 164.689 161.267 166.822 160.6C169.089 159.8 170.622 158.867 171.422 157.8C172.222 156.733 172.622 155.867 172.622 155.2C172.622 154.4 172.622 154 172.622 154C172.622 154 172.489 153.467 172.222 152.4C171.955 151.2 170.622 150.067 168.222 149C165.955 147.8 161.755 147.133 155.622 147ZM210.464 69.8C210.331 66.4667 211.331 63.8 213.464 61.8C215.597 59.6667 220.331 58.4 227.664 58C232.597 57.7333 236.197 58.3333 238.464 59.8C240.731 61.2667 242.131 62.8 242.664 64.4C243.331 65.8667 243.664 66.6 243.664 66.6L244.864 84.4C244.864 84.4 245.931 84.4 248.064 84.4C250.331 84.4 252.864 84.6667 255.664 85.2C258.597 85.6 261.131 86.4667 263.264 87.8C265.531 89.1333 266.664 91.2 266.664 94C266.664 96.8 265.597 98.8667 263.464 100.2C261.331 101.533 258.864 102.467 256.064 103C253.264 103.4 250.731 103.6 248.464 103.6C246.331 103.6 245.264 103.6 245.264 103.6C245.264 103.6 245.264 105.133 245.264 108.2C245.397 111.133 245.464 115 245.464 119.8C245.464 124.467 245.531 129.467 245.664 134.8C245.797 140.133 245.864 145.267 245.864 150.2C245.864 155 245.864 159.067 245.864 162.4C245.997 165.6 246.064 167.467 246.064 168C246.064 168.933 245.731 170.267 245.064 172C244.531 173.733 242.997 175.333 240.464 176.8C238.064 178.267 234.064 179 228.464 179C224.331 179 221.131 178.533 218.864 177.6C216.597 176.533 214.931 175.4 213.864 174.2C212.931 172.867 212.397 171.733 212.264 170.8C212.131 169.733 212.064 169.2 212.064 169.2L210.464 69.8ZM283.898 165.4C283.898 163.933 283.698 161.4 283.298 157.8C282.898 154.2 282.365 150.133 281.698 145.6C281.165 140.933 280.565 136.333 279.898 131.8C279.232 127.133 278.498 123 277.698 119.4C277.032 115.667 276.432 113 275.898 111.4C274.565 107.4 275.298 104.6 278.098 103C281.032 101.267 285.098 100.133 290.298 99.6C295.498 99.0667 299.232 99.4667 301.498 100.8C303.898 102 305.098 102.6 305.098 102.6C307.098 100.6 310.365 99.2 314.898 98.4C319.565 97.6 324.432 97.2667 329.498 97.4C336.032 97.5333 340.765 98.5333 343.698 100.4C346.632 102.267 348.098 104.267 348.098 106.4C348.098 108 347.898 109.2 347.498 110C347.098 110.8 345.498 111.6 342.698 112.4C340.032 113.067 335.165 114.267 328.098 116C323.965 116.933 320.898 119.2 318.898 122.8C316.898 126.267 315.632 130.333 315.098 135C314.698 139.533 314.698 144.067 315.098 148.6C315.498 153 315.965 156.733 316.498 159.8C317.032 162.733 317.298 164.333 317.298 164.6C317.298 164.867 317.365 165.8 317.498 167.4C317.765 168.867 317.565 170.533 316.898 172.4C316.365 174.133 314.965 175.667 312.698 177C310.432 178.333 306.832 179 301.898 179C296.965 179 293.232 178.333 290.698 177C288.165 175.533 286.432 173.933 285.498 172.2C284.565 170.467 284.032 168.933 283.898 167.6C283.898 166.133 283.898 165.4 283.898 165.4ZM399.339 97.8C404.272 97.4 408.072 97.9333 410.739 99.4C413.406 100.867 415.006 101.733 415.539 102C416.872 102.667 418.072 103.4 419.139 104.2C420.339 105 420.939 105.4 420.939 105.4C420.939 105.4 421.939 105.733 423.939 106.4C425.939 107.067 428.272 108.667 430.939 111.2C433.606 113.6 436.072 117.4 438.339 122.6C440.606 127.8 441.939 134.867 442.339 143.8C442.606 149.8 441.672 154.867 439.539 159C437.406 163 434.539 166.333 430.939 169C427.472 171.533 423.672 173.533 419.539 175C415.539 176.333 411.672 177.267 407.939 177.8C404.339 178.333 401.339 178.667 398.939 178.8C396.672 178.933 395.539 179 395.539 179C395.539 179 394.206 179 391.539 179C389.006 179 385.806 178.6 381.939 177.8C378.072 176.867 374.206 175.133 370.339 172.6C366.606 169.933 363.472 166.067 360.939 161C358.539 155.933 357.472 149.2 357.739 140.8C358.006 132.4 359.539 125.533 362.339 120.2C365.272 114.733 368.739 110.467 372.739 107.4C376.872 104.333 380.939 102.133 384.939 100.8C389.072 99.4667 392.472 98.6667 395.139 98.4C397.939 98 399.339 97.8 399.339 97.8ZM400.139 117.4C400.139 117.4 399.272 118.467 397.539 120.6C395.939 122.733 394.272 125.733 392.539 129.6C390.939 133.467 390.139 138 390.139 143.2C390.139 148.267 390.739 152.267 391.939 155.2C393.139 158.133 394.406 160.267 395.739 161.6C397.206 162.8 398.339 163.4 399.139 163.4C399.939 163.4 401.206 163.067 402.939 162.4C404.806 161.6 406.472 159.867 407.939 157.2C409.406 154.533 410.072 150.333 409.939 144.6C409.806 139.8 409.272 135.933 408.339 133C407.539 130.067 406.406 127.467 404.939 125.2C403.606 122.8 402.006 120.2 400.139 117.4Z" fill="black"/>
<rect x="446" y="77" width="264" height="122" rx="60" fill="#FFFCA6"/>
<path d="M512.2 123.9C512.2 123.9 511.767 123.9 510.9 123.9C510.033 123.833 509 123.633 507.8 123.3C506.667 122.9 505.633 122.2 504.7 121.2C503.767 120.2 503.267 118.7 503.2 116.7C503.133 114.7 503.433 113.233 504.1 112.3C504.767 111.3 505.6 110.633 506.6 110.3C507.6 109.9 508.567 109.7 509.5 109.7C510.433 109.633 511.1 109.567 511.5 109.5C511.9 109.433 512.567 109.5 513.5 109.7C514.433 109.833 515.4 110.2 516.4 110.8C517.4 111.333 518.233 112.167 518.9 113.3C519.567 114.367 519.833 115.8 519.7 117.6C519.567 119.333 519.1 120.667 518.3 121.6C517.567 122.467 516.7 123.067 515.7 123.4C514.767 123.667 513.933 123.833 513.2 123.9C512.533 123.9 512.2 123.9 512.2 123.9ZM508.7 159.8L506.3 137C506.3 137 506.133 136.667 505.8 136C505.533 135.267 505.333 134.767 505.2 134.5C505.133 134.3 505 133.9 504.8 133.3C504.667 132.633 504.833 131.933 505.3 131.2C505.833 130.467 506.967 129.933 508.7 129.6C510.5 129.267 512.367 129.167 514.3 129.3C516.233 129.433 517.933 130.033 519.4 131.1C520.933 132.1 521.867 133.867 522.2 136.4C522.467 138.267 522.733 140.5 523 143.1C523.267 145.633 523.5 148.133 523.7 150.6C523.967 153 524.167 155.033 524.3 156.7C524.5 158.3 524.6 159.1 524.6 159.1C524.6 159.1 524.633 159.467 524.7 160.2C524.767 160.867 524.667 161.667 524.4 162.6C524.133 163.467 523.467 164.267 522.4 165C521.4 165.667 519.767 166 517.5 166C515.233 166 513.5 165.7 512.3 165.1C511.1 164.433 510.233 163.7 509.7 162.9C509.233 162.1 508.933 161.4 508.8 160.8C508.733 160.133 508.7 159.8 508.7 159.8ZM545.858 107.6C547.258 107.6 548.591 107.667 549.858 107.8C551.191 107.867 552.291 108.267 553.158 109C554.024 109.733 554.524 111.067 554.658 113C554.724 113.933 554.858 115.5 555.058 117.7C555.324 119.833 555.591 122.333 555.858 125.2C556.191 128.067 556.524 131.033 556.858 134.1C557.258 137.1 557.624 140 557.958 142.8C558.291 145.533 558.591 147.9 558.858 149.9C559.124 151.9 559.324 153.233 559.458 153.9C559.658 154.9 559.858 156.1 560.058 157.5C560.258 158.833 560.258 160.167 560.058 161.5C559.858 162.767 559.224 163.833 558.158 164.7C557.158 165.567 555.491 166 553.158 166C550.891 166 549.124 165.767 547.858 165.3C546.591 164.767 545.691 164.133 545.158 163.4C544.624 162.667 544.291 162 544.158 161.4C544.091 160.733 544.024 160.267 543.958 160C543.891 159.8 543.724 158.867 543.458 157.2C543.191 155.533 542.858 153.533 542.458 151.2C542.124 148.867 541.758 146.567 541.358 144.3C541.024 141.967 540.724 140.033 540.458 138.5C540.191 136.967 540.058 136.2 540.058 136.2C540.058 136.2 539.624 136.233 538.758 136.3C537.958 136.3 536.958 136.267 535.758 136.2C534.624 136.067 533.524 135.8 532.458 135.4C531.458 134.933 530.724 134.233 530.258 133.3C529.858 132.3 529.958 130.967 530.558 129.3C531.358 127.167 532.191 124.867 533.058 122.4C533.924 119.933 534.924 117.567 536.058 115.3C537.258 113.033 538.624 111.2 540.158 109.8C541.758 108.333 543.658 107.6 545.858 107.6ZM570.923 134C570.923 134 570.49 133.633 569.623 132.9C568.757 132.167 567.89 130.933 567.023 129.2C566.157 127.467 565.723 125.167 565.723 122.3C565.79 119.367 566.69 116.833 568.423 114.7C570.223 112.5 572.59 110.8 575.523 109.6C578.457 108.333 581.657 107.7 585.123 107.7C588.657 107.633 591.857 108.2 594.723 109.4C597.657 110.6 599.99 112.267 601.723 114.4C603.523 116.533 604.423 119.033 604.423 121.9C604.423 124.7 603.99 127 603.123 128.8C602.323 130.6 601.49 131.933 600.623 132.8C599.823 133.667 599.423 134.1 599.423 134.1C599.423 134.1 599.757 134.367 600.423 134.9C601.09 135.433 601.823 136.233 602.623 137.3C603.49 138.367 604.223 139.733 604.823 141.4C605.423 143 605.69 144.933 605.623 147.2C605.557 150.2 604.89 153.133 603.623 156C602.357 158.867 600.257 161.267 597.323 163.2C594.457 165.067 590.457 166 585.323 166C580.19 166 576.057 165.033 572.923 163.1C569.79 161.167 567.523 158.8 566.123 156C564.79 153.2 564.223 150.5 564.423 147.9C564.757 143.967 565.457 141 566.523 139C567.657 136.933 569.123 135.267 570.923 134ZM585.123 113.5C583.99 113.567 582.923 114.033 581.923 114.9C580.99 115.767 580.323 117.767 579.923 120.9C579.657 122.967 579.823 124.6 580.423 125.8C581.023 126.933 581.79 127.767 582.723 128.3C583.723 128.767 584.657 129 585.523 129C586.857 129 587.957 128.333 588.823 127C589.69 125.6 590.057 123.333 589.923 120.2C589.857 117.8 589.423 116.167 588.623 115.3C587.823 114.367 587.023 113.833 586.223 113.7C585.49 113.567 585.123 113.5 585.123 113.5ZM585.023 139.3C584.29 139.3 583.457 139.467 582.523 139.8C581.657 140.133 580.823 140.967 580.023 142.3C579.29 143.567 578.757 145.667 578.423 148.6C578.157 151.533 578.457 153.733 579.323 155.2C580.19 156.6 581.223 157.533 582.423 158C583.69 158.4 584.723 158.633 585.523 158.7C586.323 158.7 587.19 158.433 588.123 157.9C589.123 157.367 589.99 156.333 590.723 154.8C591.457 153.267 591.79 151 591.723 148C591.723 145.733 591.357 144 590.623 142.8C589.957 141.6 589.19 140.767 588.323 140.3C587.457 139.767 586.69 139.467 586.023 139.4C585.357 139.333 585.023 139.3 585.023 139.3ZM621.241 166C621.241 166 620.807 166 619.941 166C619.074 166 618.074 165.867 616.941 165.6C615.874 165.333 614.907 164.8 614.041 164C613.174 163.2 612.674 162.033 612.541 160.5C612.474 159.233 612.341 157.433 612.141 155.1C611.941 152.767 611.707 150.233 611.441 147.5C611.241 144.7 611.041 142.067 610.841 139.6C610.641 137.067 610.474 135 610.341 133.4C610.207 131.8 610.141 131 610.141 131C610.141 131 610.174 130.733 610.241 130.2C610.307 129.6 610.541 128.933 610.941 128.2C611.407 127.467 612.174 126.8 613.241 126.2C614.374 125.6 615.941 125.267 617.941 125.2C619.941 125.133 621.507 125.333 622.641 125.8C623.774 126.267 624.574 126.833 625.041 127.5C625.574 128.1 625.874 128.667 625.941 129.2C626.074 129.667 626.141 129.9 626.141 129.9C626.141 129.9 626.741 129.6 627.941 129C629.207 128.333 630.807 127.667 632.741 127C634.741 126.333 636.841 125.933 639.041 125.8C639.374 125.8 640.007 125.8 640.941 125.8C641.941 125.8 643.007 126.033 644.141 126.5C645.341 126.9 646.507 127.7 647.641 128.9C648.841 130.1 649.841 131.867 650.641 134.2C651.441 136.467 651.907 139.467 652.041 143.2C652.241 147.867 652.374 151.7 652.441 154.7C652.574 157.7 652.474 160.033 652.141 161.7C651.874 163.3 651.207 164.433 650.141 165.1C649.141 165.7 647.541 166 645.341 166C643.207 166 641.641 165.7 640.641 165.1C639.641 164.5 639.007 163.8 638.741 163C638.474 162.133 638.341 161.367 638.341 160.7C638.341 160.3 638.407 159.233 638.541 157.5C638.674 155.7 638.774 153.667 638.841 151.4C638.907 149.067 638.874 146.8 638.741 144.6C638.674 142.333 638.407 140.5 637.941 139.1C637.541 137.633 636.874 136.933 635.941 137C634.807 137.067 633.741 137.5 632.741 138.3C631.807 139.033 630.974 139.9 630.241 140.9C629.507 141.833 628.941 142.667 628.541 143.4C628.141 144.067 627.941 144.4 627.941 144.4L628.941 159.5C628.941 159.5 628.941 159.833 628.941 160.5C628.941 161.167 628.741 161.933 628.341 162.8C627.941 163.6 627.174 164.333 626.041 165C624.974 165.667 623.374 166 621.241 166Z" fill="#0080FF"/>
</svg>
